# xmcd CD database file
#
# Track frame offsets:
#	150
#	22660
#	50945
#
# Disc length: 974 seconds
#
# Revision: 0
# Processed by: cddbd v1.5.1PL0 Copyright (c) Steve Scherf et al.
# Submitted via: CDex 1.51
#
DISCID=1d03cc03
DTITLE=マツリルカ - スーパーサマーバイブレーション！！
DYEAR=2005
DGENRE=J-Pop
TTITLE0=スーパーサマーバイブレーション！！
TTITLE1=アイランド
TTITLE2=スーパーサマーバイブレーション！！(Instrumental)
EXTD=YEAR: 2005
EXTT0=
EXTT1=
EXTT2=
PLAYORDER=
